<svg xmlns="http://www.w3.org/2000/svg" xmlns:xlink="http://www.w3.org/1999/xlink" viewBox="0,0,256,256" width="50px" height="50px"><g fill="#94d82d" fill-rule="nonzero" stroke="none" stroke-width="1" stroke-linecap="butt" stroke-linejoin="miter" stroke-miterlimit="10" stroke-dasharray="" stroke-dashoffset="0" font-family="none" font-weight="none" font-size="none" text-anchor="none" style="mix-blend-mode: normal"><g transform="scale(5.12,5.12)"><path d="M14,3.99023c-5.51133,0 -10,4.48867 -10,10v22c0,5.51133 4.48867,10 10,10h22c5.51133,0 10,-4.48867 10,-10v-22c0,-5.51133 -4.48867,-10 -10,-10zM14,5.99023h22c4.43067,0 8,3.56933 8,8v22c0,4.43067 -3.56933,8 -8,8h-22c-4.43067,0 -8,-3.56933 -8,-8v-22c0,-4.43067 3.56933,-8 8,-8zM22.57227,11.89258c-0.38441,-0.02459 -0.7813,0.06028 -1.13867,0.26953c-0.953,0.559 -1.27189,1.78528 -0.71289,2.73828l1.81055,3.08984l-5.86523,10.00977h-4.66602c-1.104,0 -2,0.896 -2,2c0,1.104 0.896,2 2,2h15.41211c0.157,-0.763 0.06109,-1.59047 -0.37891,-2.35547l-0.00391,-0.00391c-0.387,-0.674 -0.92383,-1.22462 -1.54883,-1.64062h-4.17773l7.67578,-13.10156c0.558,-0.953 0.23816,-2.17833 -0.71484,-2.73633c-0.954,-0.558 -2.17833,-0.23816 -2.73633,0.71484l-0.67773,1.15625l-0.67773,-1.15625c-0.34937,-0.59563 -0.95893,-0.94339 -1.59961,-0.98437zM28.31055,19.94141l-0.82617,1.37305c-0.912,1.516 -0.94142,3.39241 -0.10742,4.94141l6.29688,10.74609c0.372,0.636 1.03956,0.98828 1.72656,0.98828c0.343,0 0.69177,-0.08744 1.00977,-0.27344c0.953,-0.558 1.27189,-1.78333 0.71289,-2.73633l-1.74609,-2.98047h2.62305c1.104,0 2,-0.896 2,-2c0,-1.104 -0.896,-2 -2,-2h-4.9668zM14.625,34.00391c-0.557,-0.016 -1.09828,0.07042 -1.61328,0.23242l-0.44531,0.75781c-0.559,0.952 -0.23816,2.17833 0.71484,2.73633c0.318,0.187 0.66481,0.27539 1.00781,0.27539c0.687,0 1.35552,-0.35523 1.72852,-0.99023l1.07617,-1.83594c-0.585,-0.683 -1.43989,-1.14578 -2.46289,-1.17578z"></path></g></g></svg>