<?xml version="1.0" standalone="no"?><!DOCTYPE svg PUBLIC "-//W3C//DTD SVG 1.1//EN" "http://www.w3.org/Graphics/SVG/1.1/DTD/svg11.dtd"><svg t="1723821743826" class="icon" viewBox="0 0 1024 1024" version="1.1" xmlns="http://www.w3.org/2000/svg" p-id="15054" xmlns:xlink="http://www.w3.org/1999/xlink" width="48" height="48"><path d="M583.465674 511.380837L1007.746977 87.099535c20.444279-20.444279 20.444279-51.116651 0-71.572837-20.444279-20.444279-51.116651-20.444279-71.56093 0L511.892837 439.819907 87.623442 15.538605c-20.444279-20.444279-51.116651-20.444279-71.572837 0-20.444279 20.456186-20.444279 51.116651 0 71.572837l424.281302 424.281302L16.050605 935.66214c-20.444279 20.444279-20.444279 51.116651 0 71.56093 10.228093 10.228093 20.456186 15.336186 35.780465 15.336186 15.336186 0 25.564279-5.108093 35.780465-15.336186l424.281302-424.281303 424.281303 424.281303c10.216186 10.228093 25.564279 15.336186 35.780465 15.336186 10.216186 0 25.564279-5.108093 35.780465-15.336186 20.444279-20.444279 20.444279-51.116651 0-71.56093L583.465674 511.380837z m0 0" p-id="15055"></path></svg>