<?xml version="1.0" standalone="no"?><!DOCTYPE svg PUBLIC "-//W3C//DTD SVG 1.1//EN" "http://www.w3.org/Graphics/SVG/1.1/DTD/svg11.dtd"><svg t="1723821666195" class="icon" viewBox="0 0 1024 1024" version="1.1" xmlns="http://www.w3.org/2000/svg" p-id="13066" width="48" height="48" xmlns:xlink="http://www.w3.org/1999/xlink"><path d="M811.78055396 65.62455823H351.82411442c-78.19059752 0-142.30089586 61.01462974-147.49363032 137.90704365-76.8924139 5.09287417-137.90704365 69.30303278-137.90704365 147.49363031v459.95643954c0 81.4859867 66.30722445 147.79321115 147.79321115 147.79321114h459.95643955c78.19059752 0 142.30089586-61.01462974 147.4936303-137.90704363 76.8924139-5.09287417 137.90704365-69.30303278 137.90704365-147.49363031V213.41776938c0-81.4859867-66.30722445-147.79321115-147.79321114-147.79321115z m-45.73600723 745.25725323c0 50.62916086-41.24229473 91.87145557-91.87145558 91.87145558H214.2166516c-50.62916086 0-91.87145557-41.24229473-91.87145558-91.87145558V350.92537191c0-50.62916086 41.24229473-91.87145557 91.87145558-91.87145558h459.95643955c50.62916086 0 91.87145557 41.24229473 91.87145558 91.87145558v459.95643955z m137.6074628-137.50760253c0 47.2339114-35.74997946 86.17941974-81.68570723 91.2722939V350.92537191c0-81.4859867-66.30722445-147.79321115-147.79321115-147.79321115H260.55182049c5.09287417-45.8358675 44.13824279-81.68570724 91.27229393-81.68570724h459.95643954c50.62916086 0 91.87145557 41.24229473 91.87145557 91.87145557v460.05629984z" fill="" p-id="13067"></path></svg>